<?xml version="1.0" encoding="UTF-8" standalone="no"?>
<!DOCTYPE svg PUBLIC "-//W3C//DTD SVG 1.1//EN"
 "http://www.w3.org/Graphics/SVG/1.1/DTD/svg11.dtd">
<!-- Generated by graphviz version 14.1.1 (20251213.1925)
 -->
<!-- Title: InheritanceTree Pages: 1 -->
<svg width="423pt" height="573pt"
 viewBox="0.00 0.00 423.00 573.00" xmlns="http://www.w3.org/2000/svg" xmlns:xlink="http://www.w3.org/1999/xlink">
<g id="graph0" class="graph" transform="scale(1 1) rotate(0) translate(4 568.5)">
<title>InheritanceTree</title>
<polygon fill="white" stroke="none" points="-4,4 -4,-568.5 418.5,-568.5 418.5,4 -4,4"/>
<text xml:space="preserve" text-anchor="middle" x="207.25" y="-7.2" font-family="Times New Roman,serif" font-size="14.00">simple_xml &#45; Inheritance Hierarchy</text>
<!-- SIMPLE_XML -->
<g id="node1" class="node">
<title>SIMPLE_XML</title>
<path fill="none" stroke="black" d="M132.25,-60.5C132.25,-60.5 54,-60.5 54,-60.5 48,-60.5 42,-54.5 42,-48.5 42,-48.5 42,-36.5 42,-36.5 42,-30.5 48,-24.5 54,-24.5 54,-24.5 132.25,-24.5 132.25,-24.5 138.25,-24.5 144.25,-30.5 144.25,-36.5 144.25,-36.5 144.25,-48.5 144.25,-48.5 144.25,-54.5 138.25,-60.5 132.25,-60.5"/>
<text xml:space="preserve" text-anchor="middle" x="93.12" y="-37.45" font-family="Times New Roman,serif" font-size="14.00">SIMPLE_XML</text>
</g>
<!-- SIMPLE_XML_BUILDER -->
<g id="node2" class="node">
<title>SIMPLE_XML_BUILDER</title>
<path fill="none" stroke="black" d="M164.88,-132.5C164.88,-132.5 21.38,-132.5 21.38,-132.5 15.38,-132.5 9.38,-126.5 9.38,-120.5 9.38,-120.5 9.38,-108.5 9.38,-108.5 9.38,-102.5 15.38,-96.5 21.38,-96.5 21.38,-96.5 164.88,-96.5 164.88,-96.5 170.88,-96.5 176.88,-102.5 176.88,-108.5 176.88,-108.5 176.88,-120.5 176.88,-120.5 176.88,-126.5 170.88,-132.5 164.88,-132.5"/>
<text xml:space="preserve" text-anchor="middle" x="93.12" y="-109.45" font-family="Times New Roman,serif" font-size="14.00">SIMPLE_XML_BUILDER</text>
</g>
<!-- SIMPLE_XML_DOCUMENT -->
<g id="node3" class="node">
<title>SIMPLE_XML_DOCUMENT</title>
<path fill="none" stroke="black" d="M174.25,-204.5C174.25,-204.5 12,-204.5 12,-204.5 6,-204.5 0,-198.5 0,-192.5 0,-192.5 0,-180.5 0,-180.5 0,-174.5 6,-168.5 12,-168.5 12,-168.5 174.25,-168.5 174.25,-168.5 180.25,-168.5 186.25,-174.5 186.25,-180.5 186.25,-180.5 186.25,-192.5 186.25,-192.5 186.25,-198.5 180.25,-204.5 174.25,-204.5"/>
<text xml:space="preserve" text-anchor="middle" x="93.12" y="-181.45" font-family="Times New Roman,serif" font-size="14.00">SIMPLE_XML_DOCUMENT</text>
</g>
<!-- ANY -->
<g id="node4" class="node">
<title>ANY</title>
<path fill="none" stroke="black" d="M369.38,-204.5C369.38,-204.5 339.38,-204.5 339.38,-204.5 333.38,-204.5 327.38,-198.5 327.38,-192.5 327.38,-192.5 327.38,-180.5 327.38,-180.5 327.38,-174.5 333.38,-168.5 339.38,-168.5 339.38,-168.5 369.38,-168.5 369.38,-168.5 375.38,-168.5 381.38,-174.5 381.38,-180.5 381.38,-180.5 381.38,-192.5 381.38,-192.5 381.38,-198.5 375.38,-204.5 369.38,-204.5"/>
<text xml:space="preserve" text-anchor="middle" x="354.38" y="-181.45" font-family="Times New Roman,serif" font-size="14.00">ANY</text>
</g>
<!-- SIMPLE_XML_DOCUMENT&#45;&gt;ANY -->
<g id="edge1" class="edge">
<title>SIMPLE_XML_DOCUMENT&#45;&gt;ANY</title>
<path fill="none" stroke="black" d="M186.7,-186.5C186.7,-186.5 315.37,-186.5 315.37,-186.5"/>
<polygon fill="none" stroke="black" points="315.37,-190 325.37,-186.5 315.37,-183 315.37,-190"/>
</g>
<!-- SIMPLE_XML_ELEMENT -->
<g id="node5" class="node">
<title>SIMPLE_XML_ELEMENT</title>
<path fill="none" stroke="black" d="M167.5,-276.5C167.5,-276.5 18.75,-276.5 18.75,-276.5 12.75,-276.5 6.75,-270.5 6.75,-264.5 6.75,-264.5 6.75,-252.5 6.75,-252.5 6.75,-246.5 12.75,-240.5 18.75,-240.5 18.75,-240.5 167.5,-240.5 167.5,-240.5 173.5,-240.5 179.5,-246.5 179.5,-252.5 179.5,-252.5 179.5,-264.5 179.5,-264.5 179.5,-270.5 173.5,-276.5 167.5,-276.5"/>
<text xml:space="preserve" text-anchor="middle" x="93.12" y="-253.45" font-family="Times New Roman,serif" font-size="14.00">SIMPLE_XML_ELEMENT</text>
</g>
<!-- SIMPLE_XML_QUICK -->
<g id="node6" class="node">
<title>SIMPLE_XML_QUICK</title>
<path fill="none" stroke="black" d="M157,-348.5C157,-348.5 29.25,-348.5 29.25,-348.5 23.25,-348.5 17.25,-342.5 17.25,-336.5 17.25,-336.5 17.25,-324.5 17.25,-324.5 17.25,-318.5 23.25,-312.5 29.25,-312.5 29.25,-312.5 157,-312.5 157,-312.5 163,-312.5 169,-318.5 169,-324.5 169,-324.5 169,-336.5 169,-336.5 169,-342.5 163,-348.5 157,-348.5"/>
<text xml:space="preserve" text-anchor="middle" x="93.12" y="-325.45" font-family="Times New Roman,serif" font-size="14.00">SIMPLE_XML_QUICK</text>
</g>
<!-- SIMPLE_XML_SERIALIZER -->
<g id="node7" class="node">
<title>SIMPLE_XML_SERIALIZER</title>
<path fill="none" stroke="black" d="M174.25,-420.5C174.25,-420.5 12,-420.5 12,-420.5 6,-420.5 0,-414.5 0,-408.5 0,-408.5 0,-396.5 0,-396.5 0,-390.5 6,-384.5 12,-384.5 12,-384.5 174.25,-384.5 174.25,-384.5 180.25,-384.5 186.25,-390.5 186.25,-396.5 186.25,-396.5 186.25,-408.5 186.25,-408.5 186.25,-414.5 180.25,-420.5 174.25,-420.5"/>
<text xml:space="preserve" text-anchor="middle" x="93.12" y="-397.45" font-family="Times New Roman,serif" font-size="14.00">SIMPLE_XML_SERIALIZER</text>
</g>
<!-- LIB_TESTS -->
<g id="node8" class="node">
<title>LIB_TESTS</title>
<path fill="none" stroke="black" d="M123.25,-492.5C123.25,-492.5 63,-492.5 63,-492.5 57,-492.5 51,-486.5 51,-480.5 51,-480.5 51,-468.5 51,-468.5 51,-462.5 57,-456.5 63,-456.5 63,-456.5 123.25,-456.5 123.25,-456.5 129.25,-456.5 135.25,-462.5 135.25,-468.5 135.25,-468.5 135.25,-480.5 135.25,-480.5 135.25,-486.5 129.25,-492.5 123.25,-492.5"/>
<text xml:space="preserve" text-anchor="middle" x="93.12" y="-469.45" font-family="Times New Roman,serif" font-size="14.00">LIB_TESTS</text>
</g>
<!-- TEST_SET_BASE -->
<g id="node9" class="node">
<title>TEST_SET_BASE</title>
<path fill="none" stroke="black" d="M402.5,-492.5C402.5,-492.5 306.25,-492.5 306.25,-492.5 300.25,-492.5 294.25,-486.5 294.25,-480.5 294.25,-480.5 294.25,-468.5 294.25,-468.5 294.25,-462.5 300.25,-456.5 306.25,-456.5 306.25,-456.5 402.5,-456.5 402.5,-456.5 408.5,-456.5 414.5,-462.5 414.5,-468.5 414.5,-468.5 414.5,-480.5 414.5,-480.5 414.5,-486.5 408.5,-492.5 402.5,-492.5"/>
<text xml:space="preserve" text-anchor="middle" x="354.38" y="-469.45" font-family="Times New Roman,serif" font-size="14.00">TEST_SET_BASE</text>
</g>
<!-- LIB_TESTS&#45;&gt;TEST_SET_BASE -->
<g id="edge2" class="edge">
<title>LIB_TESTS&#45;&gt;TEST_SET_BASE</title>
<path fill="none" stroke="black" d="M135.68,-474.5C135.68,-474.5 282.28,-474.5 282.28,-474.5"/>
<polygon fill="none" stroke="black" points="282.28,-478 292.28,-474.5 282.28,-471 282.28,-478"/>
</g>
<!-- TEST_APP -->
<g id="node10" class="node">
<title>TEST_APP</title>
<path fill="none" stroke="black" d="M121,-564.5C121,-564.5 65.25,-564.5 65.25,-564.5 59.25,-564.5 53.25,-558.5 53.25,-552.5 53.25,-552.5 53.25,-540.5 53.25,-540.5 53.25,-534.5 59.25,-528.5 65.25,-528.5 65.25,-528.5 121,-528.5 121,-528.5 127,-528.5 133,-534.5 133,-540.5 133,-540.5 133,-552.5 133,-552.5 133,-558.5 127,-564.5 121,-564.5"/>
<text xml:space="preserve" text-anchor="middle" x="93.12" y="-541.45" font-family="Times New Roman,serif" font-size="14.00">TEST_APP</text>
</g>
</g>
</svg>
