<?xml version="1.0" encoding="UTF-8" standalone="no"?>
<!DOCTYPE svg PUBLIC "-//W3C//DTD SVG 1.1//EN"
 "http://www.w3.org/Graphics/SVG/1.1/DTD/svg11.dtd">
<!-- Generated by graphviz version 14.1.1 (20251213.1925)
 -->
<!-- Title: Dependencies Pages: 1 -->
<svg width="345pt" height="717pt"
 viewBox="0.00 0.00 345.00 717.00" xmlns="http://www.w3.org/2000/svg" xmlns:xlink="http://www.w3.org/1999/xlink">
<g id="graph0" class="graph" transform="scale(1 1) rotate(0) translate(4 712.5)">
<title>Dependencies</title>
<polygon fill="white" stroke="none" points="-4,4 -4,-712.5 340.5,-712.5 340.5,4 -4,4"/>
<text xml:space="preserve" text-anchor="middle" x="168.25" y="-7.2" font-family="Times New Roman,serif" font-size="14.00">simple_xml &#45; Dependencies</text>
<!-- simple_xml -->
<g id="node1" class="node">
<title>simple_xml</title>
<polygon fill="lightblue" stroke="black" points="81.25,-384.5 0,-384.5 0,-348.5 81.25,-348.5 81.25,-384.5"/>
<text xml:space="preserve" text-anchor="middle" x="40.62" y="-361.45" font-family="Times New Roman,serif" font-size="14.00">simple_xml</text>
</g>
<!-- simple_zstring -->
<g id="node2" class="node">
<title>simple_zstring</title>
<polygon fill="lightblue" stroke="black" points="329,-708.5 232.75,-708.5 232.75,-672.5 329,-672.5 329,-708.5"/>
<text xml:space="preserve" text-anchor="middle" x="280.88" y="-685.45" font-family="Times New Roman,serif" font-size="14.00">simple_zstring</text>
</g>
<!-- simple_xml&#45;&gt;simple_zstring -->
<g id="edge1" class="edge">
<title>simple_xml&#45;&gt;simple_zstring</title>
<path fill="none" stroke="black" stroke-dasharray="5,2" d="M16.5,-384.85C16.5,-453.39 16.5,-690.5 16.5,-690.5 16.5,-690.5 220.87,-690.5 220.87,-690.5"/>
<polygon fill="black" stroke="black" points="220.87,-694 230.87,-690.5 220.87,-687 220.87,-694"/>
</g>
<!-- simple_encoding -->
<g id="node3" class="node">
<title>simple_encoding</title>
<polygon fill="lightblue" stroke="black" points="335.38,-636.5 226.38,-636.5 226.38,-600.5 335.38,-600.5 335.38,-636.5"/>
<text xml:space="preserve" text-anchor="middle" x="280.88" y="-613.45" font-family="Times New Roman,serif" font-size="14.00">simple_encoding</text>
</g>
<!-- simple_xml&#45;&gt;simple_encoding -->
<g id="edge2" class="edge">
<title>simple_xml&#45;&gt;simple_encoding</title>
<path fill="none" stroke="black" stroke-dasharray="5,2" d="M32.5,-384.62C32.5,-442.4 32.5,-618.5 32.5,-618.5 32.5,-618.5 214.55,-618.5 214.55,-618.5"/>
<polygon fill="black" stroke="black" points="214.55,-622 224.55,-618.5 214.55,-615 214.55,-622"/>
</g>
<!-- simple_reflection -->
<g id="node4" class="node">
<title>simple_reflection</title>
<polygon fill="lightblue" stroke="black" points="336.5,-564.5 225.25,-564.5 225.25,-528.5 336.5,-528.5 336.5,-564.5"/>
<text xml:space="preserve" text-anchor="middle" x="280.88" y="-541.45" font-family="Times New Roman,serif" font-size="14.00">simple_reflection</text>
</g>
<!-- simple_xml&#45;&gt;simple_reflection -->
<g id="edge3" class="edge">
<title>simple_xml&#45;&gt;simple_reflection</title>
<path fill="none" stroke="black" stroke-dasharray="5,2" d="M48.5,-384.75C48.5,-430.51 48.5,-546.5 48.5,-546.5 48.5,-546.5 213.41,-546.5 213.41,-546.5"/>
<polygon fill="black" stroke="black" points="213.41,-550 223.41,-546.5 213.41,-543 213.41,-550"/>
</g>
<!-- simple_mml -->
<g id="node5" class="node">
<title>simple_mml</title>
<polygon fill="lightblue" stroke="black" points="323.75,-492.5 238,-492.5 238,-456.5 323.75,-456.5 323.75,-492.5"/>
<text xml:space="preserve" text-anchor="middle" x="280.88" y="-469.45" font-family="Times New Roman,serif" font-size="14.00">simple_mml</text>
</g>
<!-- simple_xml&#45;&gt;simple_mml -->
<g id="edge4" class="edge">
<title>simple_xml&#45;&gt;simple_mml</title>
<path fill="none" stroke="black" stroke-dasharray="5,2" d="M64.5,-384.82C64.5,-415.63 64.5,-474.5 64.5,-474.5 64.5,-474.5 226.09,-474.5 226.09,-474.5"/>
<polygon fill="black" stroke="black" points="226.09,-478 236.09,-474.5 226.09,-471 226.09,-478"/>
</g>
<!-- simple_testing -->
<g id="node6" class="node">
<title>simple_testing</title>
<polygon fill="lightblue" stroke="black" points="328.62,-420.5 233.12,-420.5 233.12,-384.5 328.62,-384.5 328.62,-420.5"/>
<text xml:space="preserve" text-anchor="middle" x="280.88" y="-397.45" font-family="Times New Roman,serif" font-size="14.00">simple_testing</text>
</g>
<!-- simple_xml&#45;&gt;simple_testing -->
<g id="edge5" class="edge">
<title>simple_xml&#45;&gt;simple_testing</title>
<path fill="none" stroke="black" stroke-dasharray="5,2" d="M81.69,-375.5C142.28,-375.5 248.5,-375.5 248.5,-375.5 248.5,-375.5 248.5,-376.35 248.5,-376.35"/>
<polygon fill="black" stroke="black" points="245,-372.53 248.5,-382.53 252,-372.53 245,-372.53"/>
</g>
<!-- base -->
<g id="node7" class="node">
<title>base</title>
<polygon fill="lightgray" stroke="black" points="307.88,-348.5 253.88,-348.5 253.88,-312.5 307.88,-312.5 307.88,-348.5"/>
<text xml:space="preserve" text-anchor="middle" x="280.88" y="-325.45" font-family="Times New Roman,serif" font-size="14.00">base</text>
</g>
<!-- simple_xml&#45;&gt;base -->
<g id="edge6" class="edge">
<title>simple_xml&#45;&gt;base</title>
<path fill="none" stroke="black" stroke-dasharray="5,2" d="M81.59,-366.5C150.1,-366.5 280.5,-366.5 280.5,-366.5 280.5,-366.5 280.5,-360.44 280.5,-360.44"/>
<polygon fill="black" stroke="black" points="284,-360.44 280.5,-350.44 277,-360.44 284,-360.44"/>
</g>
<!-- gobo_kernel -->
<g id="node8" class="node">
<title>gobo_kernel</title>
<polygon fill="lightgray" stroke="black" points="322.62,-276.5 239.12,-276.5 239.12,-240.5 322.62,-240.5 322.62,-276.5"/>
<text xml:space="preserve" text-anchor="middle" x="280.88" y="-253.45" font-family="Times New Roman,serif" font-size="14.00">gobo_kernel</text>
</g>
<!-- simple_xml&#45;&gt;gobo_kernel -->
<g id="edge7" class="edge">
<title>simple_xml&#45;&gt;gobo_kernel</title>
<path fill="none" stroke="black" stroke-dasharray="5,2" d="M81.39,-357.5C140.89,-357.5 244.5,-357.5 244.5,-357.5 244.5,-357.5 244.5,-288.17 244.5,-288.17"/>
<polygon fill="black" stroke="black" points="248,-288.17 244.5,-278.17 241,-288.17 248,-288.17"/>
</g>
<!-- gobo_structure -->
<g id="node9" class="node">
<title>gobo_structure</title>
<polygon fill="lightgray" stroke="black" points="329.38,-204.5 232.38,-204.5 232.38,-168.5 329.38,-168.5 329.38,-204.5"/>
<text xml:space="preserve" text-anchor="middle" x="280.88" y="-181.45" font-family="Times New Roman,serif" font-size="14.00">gobo_structure</text>
</g>
<!-- simple_xml&#45;&gt;gobo_structure -->
<g id="edge8" class="edge">
<title>simple_xml&#45;&gt;gobo_structure</title>
<path fill="none" stroke="black" stroke-dasharray="5,2" d="M60.5,-348.25C60.5,-302.49 60.5,-186.5 60.5,-186.5 60.5,-186.5 220.45,-186.5 220.45,-186.5"/>
<polygon fill="black" stroke="black" points="220.45,-190 230.45,-186.5 220.45,-183 220.45,-190"/>
</g>
<!-- gobo_xml -->
<g id="node10" class="node">
<title>gobo_xml</title>
<polygon fill="lightgray" stroke="black" points="316.62,-132.5 245.12,-132.5 245.12,-96.5 316.62,-96.5 316.62,-132.5"/>
<text xml:space="preserve" text-anchor="middle" x="280.88" y="-109.45" font-family="Times New Roman,serif" font-size="14.00">gobo_xml</text>
</g>
<!-- simple_xml&#45;&gt;gobo_xml -->
<g id="edge9" class="edge">
<title>simple_xml&#45;&gt;gobo_xml</title>
<path fill="none" stroke="black" stroke-dasharray="5,2" d="M40.5,-348.38C40.5,-290.6 40.5,-114.5 40.5,-114.5 40.5,-114.5 233.11,-114.5 233.11,-114.5"/>
<polygon fill="black" stroke="black" points="233.11,-118 243.11,-114.5 233.11,-111 233.11,-118"/>
</g>
<!-- testing -->
<g id="node11" class="node">
<title>testing</title>
<polygon fill="lightgray" stroke="black" points="307.88,-60.5 253.88,-60.5 253.88,-24.5 307.88,-24.5 307.88,-60.5"/>
<text xml:space="preserve" text-anchor="middle" x="280.88" y="-37.45" font-family="Times New Roman,serif" font-size="14.00">testing</text>
</g>
<!-- simple_xml&#45;&gt;testing -->
<g id="edge10" class="edge">
<title>simple_xml&#45;&gt;testing</title>
<path fill="none" stroke="black" stroke-dasharray="5,2" d="M20.5,-348.15C20.5,-279.61 20.5,-42.5 20.5,-42.5 20.5,-42.5 241.99,-42.5 241.99,-42.5"/>
<polygon fill="black" stroke="black" points="241.99,-46 251.99,-42.5 241.99,-39 241.99,-46"/>
</g>
</g>
</svg>
